<svg xmlns="http://www.w3.org/2000/svg" width="305" height="172" style=""><rect id="backgroundrect" width="100%" height="100%" x="0" y="0" fill="none" stroke="none" data-darkreader-inline-stroke="" style="--darkreader-inline-stroke: none;"/><linearGradient id="a" x1="0.9772330748873858" x2="0.07109817732912314" y1="0.6533230168710188" y2="0.3284714563562721"><stop offset="0" stop-color="#0cffff" data-darkreader-inline-stopcolor="" style="--darkreader-inline-stopcolor: #00c5c5;"/><stop offset=".5" stop-color="#0069e3" stop-opacity=".6" data-darkreader-inline-stopcolor="" style="--darkreader-inline-stopcolor: #0054b6;"/><stop offset="1" stop-color="#0066e2" stop-opacity="0" data-darkreader-inline-stopcolor="" style="--darkreader-inline-stopcolor: #0052b5;"/></linearGradient><g class="currentLayer" style=""><title>Layer 1</title><path d="M216.39334411621093,111.99999542236328 c-4.3,1 -15.4,1.6 -15.4,1.6 l-1.4,4.5 s5.5,-0.5 9.6,-0.1 c0,0 1.3,-0.1 1.4,1.5 l-0.1,3.3 s-0.1,1 -1.4,1.2 c-1.6,0.30000000000000004 -12,0.8 -12,0.8 l-1.8,5.8 s-0.6000000000000001,1.3 0.8,1 a96,96 0 0 1 13.7,-2.3 c1.6,0.4 3.3,2.5 2.8,4.4 c-0.6000000000000001,2.3 -11.6,9.5 -18.2,9 c0,0 -3.5,0.2 -6.5,-4.6 c-2.8,-4.6 1,-13.2 1,-13.2 s-1.7000000000000002,-4 -0.4,-5.5 c0,0 0.7000000000000001,-0.7000000000000001 2.9,-0.8 l2.7,-5.7 s-3,0.2 -4.9,-2.1 c-1.7000000000000002,-2.2 -1.8,-3.2 -0.5,-3.7 a88,88 0 0 1 22.8,-2.8 s3.1,-0.4 5.8,5 c0,0 1.3,2.2 -1,2.7 m-33,21.8 c-1,2.7 -4,5.5 -7.6,3.8 c-3.7,-1.8 -9.5,-13.8 -9.5,-13.8 s-2.2,-4.5 -2.6,-4.4 c0,0 -0.5,-0.8 -0.8,4 c-0.30000000000000004,5 0.1,14.5 -1.9,16 c-1.8,1.5 -4,0.8 -5.2,-0.9 c-1,-1.7000000000000002 -1.4,-5.9 -0.9,-13.1 c0.7000000000000001,-7.3 2.3,-15 4.4,-17.4 c2.2,-2.4 3.9,-0.6000000000000001 4.5,0 c0,0 2.8,2.6 7.5,10.2 l0.8,1.4 s4.3,7.3 4.7,7.2 c0,0 0.4,0.4 0.7000000000000001,0.1 c0.4,-0.1 0.30000000000000004,-2.5 0.30000000000000004,-2.5 s-0.8,-7.8 -4.8,-21 c0,0 -0.6000000000000001,-1.7000000000000002 -0.2,-3.3 c0.4,-1.5 2,-0.8 2,-0.8 s6,3 8.9,12.9 c2.9,10 0.9,19 -0.2,21.6 m-29.5,-25.5 c-0.5,1 -0.8,2.5 -3.3,2.9 c0,0 -24.2,1.7000000000000002 -25.4,3.5 c0,0 -0.8,1 0.5,1.2 c1.4,0.30000000000000004 6.9,1 9.5,1.2 c2.8,0 12.3,0 15.7,4.4 c0,0 2,2 2,6.8 c-0.1,4.7 -1,6.4 -2.8,8.2 c-2,1.6 -18.3,9 -29,-2.4 c0,0 -4.8,-5.5 1.8,-9.7 c0,0 4.7,-3 16.7,0.5 c0,0 3.6,1.3 3.5,2.7 c-0.2,1.4 -3,2.9 -7,2.8 c-4,0 -6.9,-2 -6.3,-1.7000000000000002 c0.6000000000000001,0.2 -4.2,-2.3 -5.7,-0.6000000000000001 c-1.4,1.6 -1,2.6 0.4,3.6 c3.6,2.1 17.8,1.3 22,-3.5 c0,0 1.7000000000000002,-2 -0.8,-3.5 c-2.6,-1.5 -10,-2.4 -12.8,-2.5 c-2.7,-0.2 -12.9,0 -14.4,-2.7 c0,0 -1.4,-1.9 0.1,-7.1 c1.7000000000000002,-5.5 13.5,-7.7 18.7,-8.1 c0,0 14,-0.6000000000000001 16.7,2.3 c0,0 0.4,0.7000000000000001 0,1.7000000000000002 m-40,32.3 c-1.8,1.3 -5.4,0.8 -6.4,-0.7000000000000001 c-1,-1.3 -1.4,-6.3 -1.2,-14.3 c0.2,-8.2 0.4,-18.2 2.2,-19.8 c1.8,-1.6 2.9,-0.2 3.6,0.9 c0.7000000000000001,1 1.6,2.3 1.8,4.8 l0.8,15.8 s0.8,12 -0.8,13.3 m3.6,-43 c-5,1.8 -8.4,1.2 -11.3,0 c-1.3,2.2 -2,3 -3,3 c-1.4,0.2 -2.7,-2.1 -2.9,-2.8 c-0.30000000000000004,-0.6000000000000001 -1,-1.6 -0.1,-3.8 c-2.8,-2.6 -3,-6 -2.6,-8.4 c0.7000000000000001,-2.7 5.5,-13 20,-14.1 c0,0 7,-0.5 8.3,3.3 h0.2 s6.8,0 6.7,6.2 c0,6.3 -7.6,14 -15.3,16.8 m6.4,-18 c-4.6,0.8 -11.6,7 -15,12 c5.2,1 14.3,0.7000000000000001 18.3,-7.6 c0,0 2,-5.3 -3.3,-4.3 m-20,4 c-1.4,2.4 -1.5,3.8 -0.8,4.8 c1.7000000000000002,-2.6 4.7,-6.6 9.2,-9.8 c-3.5,0.4 -6.4,1.8 -8.4,5 M227.19334411621094,140.39999542236328 c-3.3,8.3 -6.1,16.7 -7.8,29.3 c0,0 -0.30000000000000004,2.5 -2.3,1.7000000000000002 c-2,-0.8 -5.3,-4 -6,-8.7 c-0.7000000000000001,-6.1 2,-16.4 7.4,-28.3 a16.5,16.5 0 0 1 -1.8,-11.7 s1.5,-10 11.2,-19 c0,0 1.2,-1 1.8,-0.6000000000000001 c0.8,0.4 0.5,3.5 -0.1,5.2 c-0.6000000000000001,1.5 -5,9.1 -5,9.1 s-2.7,5.3 -2,9.3 c5.2,-8 16.9,-24.2 24.1,-19 c4.6,3.2 4.6,13.9 1.2,20 c-2.7,5 -10.4,15 -20.6,12.7 m15,-25 c-2.7,3 -7.4,8.6 -11.2,16.1 c4,-0.4 7.9,-2.7 9,-3.8 c2,-1.7000000000000002 6.4,-6.4 5.7,-12.6 c0,0 -0.4,-3.2 -3.5,0.30000000000000004 m-162,29.3 a58,58 0 0 1 -31.4,0.4 c-0.2,2.7 -0.5,3.8 -1,4.3 c-0.5,0.6000000000000001 -4.7,3 -7,-0.4 a20,20 0 0 1 -1.8,-7.4 a55.2,55.2 0 0 1 -21.9,-17.3 c-0.30000000000000004,-0.30000000000000004 -3.7,-4 -0.30000000000000004,-8.3 c3.1,-4 13.5,-8 22.8,-9.6 a64,64 0 0 1 2.4,-17 c1.3,-3.4 3,-0.4 4.5,1.8 a40,40 0 0 1 2.1,14.4 c6,-0.30000000000000004 9.8,0.1 16.5,1.5 c9,1.5 14.9,6.1 14.4,11.3 c-0.4,5.2 -5,7.3 -6.9,7.5 c-1.8,0.1 -4.7,-1.2 -4.7,-1.2 c-2,-1 -0.2,-1.9 2.2,-3 c2.6,-1.2 2,-2.5 2,-2.5 c-1,-3 -12.5,-4.9 -24,-4.9 c0,6.5 0.30000000000000004,17.1 0.5,23.3 c8,1.6 14,1.2 14,1.2 s29.3,-0.8 30.2,-19.8 c0.9,-19 -29.3,-37.3 -51.6,-43 c-22.2,-6 -34.8,-1.7000000000000002 -35.8,-1.2 c-1.2,0.6000000000000001 -0.1,0.8 -0.1,0.8 s1.1,0.2 3.3,1 c2.2,0.7000000000000001 0.5,1.8 0.5,1.8 c-3.8,1.3 -8,0.5 -9,-1.2 c-0.7000000000000001,-1.8 0.6000000000000001,-3.3 2.3,-5.7 c1.5,-2.3 3.2,-2.3 3.2,-2.3 c27.5,-9.7 61,7.8 61,7.8 c31.4,16 36.8,35 36.2,42.3 c-0.5,7.3 -3.2,19.5 -22.6,25.5 m-60.4,-26.4 c-3,1.5 -1,3.9 -1,3.9 a50,50 0 0 0 20,12.8 c0.8,-11 0.7000000000000001,-15 0.7000000000000001,-20.5 a60.5,60.5 0 0 0 -19.7,3.8 M277.69334411621094,95.19999542236329 c-1.2,0 -2.2,1 -2.1,2.1 c0.5,6.3 1,12 1.3,17.8 h-16.4 c-1.1,0 -2,0.9 -2,2 v3.7 c0,1.2 0.9,2 2,2 h16.8 c0.2,5.6 0.2,11.2 -0.1,17.2 c0,1.1 1,2 2.1,2 h3.8 c1.2,0 2,-0.9 2.2,-2 c0.4,-5.7 0.6000000000000001,-11.4 0.5,-17.1 H303.19334411621094 c1.2,0 2.2,-1 2.2,-2.1 v-3.7 c0,-1.1 -1,-2 -2.2,-2 h-17.8 c-0.30000000000000004,-6 -1,-12 -2.1,-17.8 c-0.2,-1.1 -1,-2 -2.1,-2 h-3.5 z" id="svg_1" class=""/><path fill="url(#a)" d="M163.49334411621095,0.09999542236328107 c-50.7,0 -93.6,26 -108,62 l8,5.3 C71.69334411621094,35.79999542236328 113.19334411621094,7.199995422363282 163.89334411621093,7.199995422363282 c55.3,0 98.3,46.4 106.6,76.8 h7.1 c-3.3,-25 -48.5,-84 -114,-84 z" id="svg_2" class=""/></g></svg>